<!-- Generated by IcoMoon.io -->
<svg version="1.1" xmlns="http://www.w3.org/2000/svg" width="3511" height="1024" viewBox="0 0 3511 1024">
<g id="icomoon-ignore">
</g>
<path fill="#3470ff" d="M3442.907 412.91c-49.964 0-95.605 2.883-136.916 8.648-41.318 5.765-85.994 17.295-134.034 34.59v550.554h-250.778v-818.625h185.922l37.471 96.563c49.964-40.354 98.962-69.179 147.003-86.474 48.048-17.295 98.487-25.943 151.333-25.943v240.688z"></path>
<path fill="#3470ff" d="M2801.254 998.056c-30.749 6.729-58.134 11.535-82.154 14.416-23.062 2.882-50.447 4.323-82.154 4.323-92.233 0-152.766-29.784-181.592-89.359-40.353 29.784-80.713 52.363-121.066 67.738s-84.553 23.062-132.593 23.062c-43.235 0-82.154-9.128-116.743-27.385s-61.491-42.759-80.706-73.501c-19.215-30.749-28.826-64.38-28.826-100.886 0-61.499 15.375-110.017 46.117-145.568 31.707-36.511 73.984-65.336 126.83-86.475 52.846-22.099 133.076-48.522 240.691-79.268l43.235-12.971v-5.765c0-88.396-40.353-132.594-121.066-132.594-39.395 0-81.671 8.648-126.83 25.942s-97.039 45.159-155.648 83.592l-47.565-172.949c65.339-37.472 131.635-66.777 198.89-87.916 68.22-21.138 140.281-31.707 216.188-31.707 92.24 0 162.86 24.982 211.866 74.944 49.957 49.963 74.942 135.477 74.942 256.541v273.833c0 21.138 4.323 36.513 12.968 46.124 8.653 8.645 22.579 12.968 41.801 12.968 18.249 0 36.506-2.399 54.762-7.205l8.653 170.064zM2226.198 783.316c0 19.215 4.805 33.148 14.409 41.794 10.569 8.645 26.902 12.968 49.006 12.968 40.353 0 87.91-17.291 142.68-51.88v-152.773l-21.621 7.206c-72.060 25.942-121.059 49.002-147.003 69.179-24.986 19.217-37.471 43.715-37.471 73.506z"></path>
<path fill="#3470ff" d="M1549.327 1023.993c-119.142 0-220.028-23.055-302.658-69.179-82.629-47.075-144.603-109.049-185.922-185.915-40.353-77.83-60.533-162.383-60.533-253.662 0-90.318 21.138-173.91 63.415-250.776 43.242-76.866 107.132-138.359 191.685-184.479s186.405-69.18 305.547-69.18c111.455 0 209.459 21.619 294.012 64.856l-51.888 181.596c-35.547-18.256-72.543-32.668-110.972-43.237-38.437-11.53-82.154-17.295-131.152-17.295-62.457 0-116.743 14.413-162.86 43.238-45.158 27.864-79.748 66.297-103.775 115.299-23.055 48.042-34.589 101.848-34.589 161.419 0 94.161 24.986 171.508 74.949 232.041 49.964 59.568 121.541 89.359 214.74 89.359 79.755 0 165.749-19.697 257.982-59.092l49.006 177.269c-39.395 20.18-86.477 36.513-141.239 49.006-54.769 12.493-110.021 18.732-165.749 18.732z"></path>
<path fill="#101828" d="M397.782 646.394h-138.359v360.308h-259.423v-980.041h392.018c140.281 0 242.609 24.021 306.984 72.062 64.375 47.081 96.565 121.545 96.565 223.393 0 132.594-48.523 221.471-145.567 266.63l275.279 417.957h-299.78l-227.716-360.308zM259.423 466.239h132.595c50.924 0 87.435-10.568 109.534-31.707 23.060-21.138 34.589-53.807 34.589-98.005 0-46.119-11.049-79.268-33.148-99.446s-59.091-30.266-110.975-30.266h-132.595v259.423z"></path>
</svg>
